<svg xmlns="http://www.w3.org/2000/svg" width="1200" height="430" viewBox="0 0 1200 430" role="img" aria-labelledby="title desc">
  <title id="title">GHX5T-SOL cyber ghost banner</title>
  <desc id="desc">Animated neon cyberpunk banner showing a hooded skull with mechanical angel wings, holographic grid, and hacker terminal markings.</desc>
  <defs>
    <linearGradient id="bg" x1="0%" y1="0%" x2="100%" y2="100%">
      <stop offset="0%" stop-color="#02030a"/>
      <stop offset="42%" stop-color="#080021"/>
      <stop offset="100%" stop-color="#001d26"/>
    </linearGradient>
    <linearGradient id="neon" x1="0%" y1="0%" x2="100%" y2="0%">
      <stop offset="0%" stop-color="#00e5ff"/>
      <stop offset="45%" stop-color="#ff2bd6"/>
      <stop offset="100%" stop-color="#a3ff12"/>
    </linearGradient>
    <radialGradient id="halo" cx="50%" cy="47%" r="50%">
      <stop offset="0%" stop-color="#00e5ff" stop-opacity=".45"/>
      <stop offset="45%" stop-color="#ff2bd6" stop-opacity=".12"/>
      <stop offset="100%" stop-color="#000000" stop-opacity="0"/>
    </radialGradient>
    <filter id="glow" x="-30%" y="-30%" width="160%" height="160%">
      <feGaussianBlur stdDeviation="5" result="blur"/>
      <feColorMatrix in="blur" type="matrix" values="0 0 0 0 0  0 0 0 0 .9  0 0 0 0 1  0 0 0 .85 0" result="cyan"/>
      <feMerge>
        <feMergeNode in="cyan"/>
        <feMergeNode in="SourceGraphic"/>
      </feMerge>
    </filter>
    <pattern id="grid" width="40" height="40" patternUnits="userSpaceOnUse">
      <path d="M 40 0 L 0 0 0 40" fill="none" stroke="#00e5ff" stroke-opacity=".13" stroke-width="1"/>
    </pattern>
    <style>
      .mono { font-family: ui-monospace, SFMono-Regular, Menlo, Consolas, monospace; }
      .title { font-family: ui-monospace, SFMono-Regular, Menlo, Consolas, monospace; font-weight: 900; letter-spacing: 8px; }
      .scan { animation: scan 4s linear infinite; }
      .float { animation: float 5s ease-in-out infinite; transform-origin: 600px 210px; }
      .flicker { animation: flicker 2.7s steps(1,end) infinite; }
      .dash { stroke-dasharray: 12 16; animation: dash 10s linear infinite; }
      .blink { animation: blink 1.1s steps(1,end) infinite; }
      .rain { animation: rain 7s linear infinite; }
      @keyframes scan { from { transform: translateY(-80px); opacity: .1; } 50% { opacity: .75; } to { transform: translateY(500px); opacity: .1; } }
      @keyframes float { 0%, 100% { transform: translateY(0); } 50% { transform: translateY(-12px); } }
      @keyframes flicker { 0%, 100% { opacity: 1; } 8% { opacity: .45; } 9% { opacity: 1; } 42% { opacity: .7; } 43% { opacity: 1; } 74% { opacity: .55; } 75% { opacity: 1; } }
      @keyframes dash { to { stroke-dashoffset: -320; } }
      @keyframes blink { 0%, 49% { opacity: 1; } 50%, 100% { opacity: .15; } }
      @keyframes rain { from { transform: translateY(-160px); } to { transform: translateY(420px); } }
    </style>
  </defs>

  <rect width="1200" height="430" rx="28" fill="url(#bg)"/>
  <rect x="14" y="14" width="1172" height="402" rx="22" fill="none" stroke="url(#neon)" stroke-width="2" opacity=".85"/>
  <rect width="1200" height="430" fill="url(#grid)" opacity=".7"/>
  <circle cx="600" cy="210" r="260" fill="url(#halo)"/>

  <g class="rain mono" fill="#00e5ff" opacity=".34" font-size="16">
    <text x="78" y="30">01001 0x5A hash tide</text>
    <text x="980" y="64">fork://mainnet</text>
    <text x="920" y="142">scope.clean()</text>
    <text x="72" y="160">proof &gt; myth</text>
    <text x="1000" y="230">no keys</text>
    <text x="52" y="280">red_line.map</text>
    <text x="972" y="340">Satonshi?</text>
  </g>

  <g opacity=".35" stroke="#ff2bd6" stroke-width="2" fill="none">
    <path class="dash" d="M70 350 C230 260 320 390 470 290 S760 220 920 310 1070 240 1140 310"/>
    <path class="dash" d="M65 92 C260 155 340 40 500 105 S770 170 900 92 1060 120 1140 72"/>
  </g>

  <g class="float" filter="url(#glow)">
    <g fill="none" stroke-linecap="round" stroke-linejoin="round">
      <g stroke="#00e5ff" stroke-width="2.4" opacity=".86">
        <path d="M560 184 C455 58 300 72 222 182 C320 160 383 188 448 246 C387 246 318 270 254 342 C380 316 470 300 550 250"/>
        <path d="M640 184 C745 58 900 72 978 182 C880 160 817 188 752 246 C813 246 882 270 946 342 C820 316 730 300 650 250"/>
      </g>
      <g stroke="#a3ff12" stroke-width="1.4" opacity=".6">
        <path d="M538 204 C430 134 354 144 286 206"/>
        <path d="M662 204 C770 134 846 144 914 206"/>
        <path d="M520 230 C418 214 350 236 302 288"/>
        <path d="M680 230 C782 214 850 236 898 288"/>
      </g>
      <g stroke="#ff2bd6" stroke-width="1.6" opacity=".7">
        <path d="M494 272 L418 296 L360 338"/>
        <path d="M706 272 L782 296 L840 338"/>
        <path d="M504 160 L430 110 L330 112"/>
        <path d="M696 160 L770 110 L870 112"/>
      </g>
    </g>

    <path d="M600 74 C540 84 504 124 492 182 C484 223 497 292 532 326 C560 354 640 354 668 326 C703 292 716 223 708 182 C696 124 660 84 600 74 Z" fill="#050814" stroke="#00e5ff" stroke-width="4"/>
    <path d="M600 52 L486 130 L455 290 L520 365 L680 365 L745 290 L714 130 Z" fill="none" stroke="#ff2bd6" stroke-width="3" opacity=".75"/>
    <path d="M526 198 C544 178 572 178 584 205 C562 220 542 218 526 198 Z" fill="#00e5ff"/>
    <path d="M674 198 C656 178 628 178 616 205 C638 220 658 218 674 198 Z" fill="#00e5ff"/>
    <circle class="blink" cx="552" cy="200" r="8" fill="#001a20"/>
    <circle class="blink" cx="648" cy="200" r="8" fill="#001a20"/>
    <path d="M572 264 L628 264" stroke="#a3ff12" stroke-width="6" stroke-linecap="round"/>
    <path d="M590 232 L610 232 L600 250 Z" fill="#d9fbff"/>
    <path d="M545 300 C574 322 626 322 655 300" fill="none" stroke="#ff2bd6" stroke-width="3"/>
    <path d="M534 144 C560 118 640 118 666 144" fill="none" stroke="#d9fbff" stroke-width="3" opacity=".55"/>
  </g>

  <g class="title flicker" text-anchor="middle">
    <text x="600" y="61" fill="#00e5ff" font-size="18" class="mono">NEURAL LINK // GHOST OPERATOR // PROOF MODE</text>
    <text x="600" y="382" fill="url(#neon)" font-size="62" class="title">GHX5T-SOL</text>
    <text x="600" y="409" fill="#d9fbff" font-size="15" class="mono">hood up | wings armed | proof in fire | no keys leave the shell</text>
  </g>

  <rect class="scan" x="0" y="0" width="1200" height="54" fill="#00e5ff" opacity=".12"/>
  <g fill="#ffffff" opacity=".07">
    <rect y="36" width="1200" height="2"/>
    <rect y="96" width="1200" height="2"/>
    <rect y="156" width="1200" height="2"/>
    <rect y="216" width="1200" height="2"/>
    <rect y="276" width="1200" height="2"/>
    <rect y="336" width="1200" height="2"/>
  </g>
</svg>
